inDegrees=no
num_controls=7
num_derivatives=13
num_iterations=112
num_multipliers=7
num_parameters=0
num_slacks=7
num_states=26
objective=0.448135
objective_accelerations=0.059027
objective_balance=0.003855
objective_effort=0.023894
objective_height=0.355799
objective_ligament=0.005559
solver_duration=1503.639034
status=Solve_Succeeded
success=true
DataType=double
version=3
OpenSimVersion=4.5
endheader
time	/jointset/ground_pelvis/pelvis_tilt/value	/jointset/ground_pelvis/pelvis_tx/value	/jointset/ground_pelvis/pelvis_ty/value	/jointset/hip_l/hip_flexion_l/value	/jointset/hip_l/hip_adduction_l/value	/jointset/hip_l/hip_rotation_l/value	/jointset/back/lumbar_extension/value	/jointset/patellofemoral_l/patellar_flexion_l/value	/jointset/knee_l/knee_flexion_l/value	/jointset/knee_l/knee_adduction_l/value	/jointset/knee_l/knee_rotation_l/value	/jointset/ankle_l/ankle_angle_l/value	/jointset/subtalar_l/subtalar_angle_l/value	/jointset/ground_pelvis/pelvis_tilt/speed	/jointset/ground_pelvis/pelvis_tx/speed	/jointset/ground_pelvis/pelvis_ty/speed	/jointset/hip_l/hip_flexion_l/speed	/jointset/hip_l/hip_adduction_l/speed	/jointset/hip_l/hip_rotation_l/speed	/jointset/back/lumbar_extension/speed	/jointset/patellofemoral_l/patellar_flexion_l/speed	/jointset/knee_l/knee_flexion_l/speed	/jointset/knee_l/knee_adduction_l/speed	/jointset/knee_l/knee_rotation_l/speed	/jointset/ankle_l/ankle_angle_l/speed	/jointset/subtalar_l/subtalar_angle_l/speed	/forceset/tau_hip_flexion_l	/forceset/tau_hip_adduction_l	/forceset/tau_hip_rotation_l	/forceset/tau_knee_flexion_l	/forceset/tau_ankle_angle_l	/forceset/tau_subtalar_angle_l	/forceset/tau_lumbar_extension	lambda_cid13_p0	lambda_cid13_p1	lambda_cid13_p2	lambda_cid13_p3	lambda_cid13_p4	lambda_cid13_p5	lambda_cid14_p0	/jointset/ground_pelvis/pelvis_tilt/accel	/jointset/ground_pelvis/pelvis_tx/accel	/jointset/ground_pelvis/pelvis_ty/accel	/jointset/hip_l/hip_flexion_l/accel	/jointset/hip_l/hip_adduction_l/accel	/jointset/hip_l/hip_rotation_l/accel	/jointset/back/lumbar_extension/accel	/jointset/patellofemoral_l/patellar_flexion_l/accel	/jointset/knee_l/knee_flexion_l/accel	/jointset/knee_l/knee_adduction_l/accel	/jointset/knee_l/knee_rotation_l/accel	/jointset/ankle_l/ankle_angle_l/accel	/jointset/subtalar_l/subtalar_angle_l/accel	gamma_cid13_p0	gamma_cid13_p1	gamma_cid13_p2	gamma_cid13_p3	gamma_cid13_p4	gamma_cid13_p5	gamma_cid14_p0
0	-0.03955477933098258	0.06892678145482894	0.8959520277774978	0.1955287580552426	-0.3219945864328204	-0.4836393943324606	-0.1379045077516729	0.07015288079084885	0.07015288079084844	-0.1745327288955132	-0.1180932500780899	-0.06701059314715049	0.003835432431174323	0	0	0	0	0	0	0	0	0	0	0	0	0	0.1086071234554974	-0.09836586721927507	-0.03006376415485868	-0.2326780714231028	0.186801623396629	-0.01606197906947006	-0.05395703740638567	24.20619450031572	-0.4596882066540837	3.389199833515182	3.018090389939152	-514.8474632348597	-80.49058249882115	-39.92158081210967	-4.788650115123265	-2.004752705319549	-1.009399134705663	13.06602743765246	-2.120191639135498	3.342699767989842	-2.90555272206273	10.1438483903028	10.14384839030224	0.6239667263437267	-0.8456810558995546	2.046113642932006	-1.213879650356039	-2.894826758882509e-08	1.077841050135352e-07	1.264465826346327e-07	1.106747214642941e-08	-1.771921936298269e-08	-4.079270542369066e-08	-8.686756225194049e-09
0.01	-0.03978349901014392	0.06882779690468492	0.8959030107257784	0.1961610394357823	-0.3220989243960677	-0.483471678534172	-0.1380556335410306	0.07064556725578554	0.07064556725577624	-0.1745049321544394	-0.1181294945537235	-0.06691297807144922	0.003773977488502697	-0.04551553251255572	-0.01971482900690855	-0.009770749480622745	0.1258861089252321	-0.0207562658169592	0.03340456095866321	-0.0299426447369373	0.09809507147933834	0.09809507147933903	0.005558136755207321	-0.007204446870110771	0.01942983211082597	-0.01222070575322927	0.1033274484071851	-0.09977281239595033	-0.02898760955130602	-0.2257257760548361	0.1757704928473077	-0.009972804828922655	-0.04953264451226069	20.86744789469599	-2.480628718947619	3.666847968499207	4.213418397296987	-515.6891185701458	-84.79160948960572	-39.93161622061309	-4.398755350249935	-1.942533631638359	-0.9560172690954035	12.26436612215554	-2.036674278087886	3.318529522480291	-2.99624337927935	9.576005038014793	9.576005038015209	0.5215880605334567	-0.6511457544623356	1.877441866654684	-1.215655183194929	-6.543293015625594e-08	1.439619866719144e-07	1.969446218155453e-07	4.532593377570586e-08	-2.367788222288401e-07	-7.872126701518513e-08	-1.346217924194096e-08
0.02	-0.0404605241206175	0.06853412693781938	0.8957572652963817	0.1980350746060169	-0.3224074910625075	-0.4829740780737644	-0.1384977103837116	0.07210593813776156	0.07210593813776155	-0.1744215838637304	-0.1182364473484528	-0.06662385990034041	0.003592417659221062	-0.08966108626223938	-0.03893708334430335	-0.01934567553542914	0.2483507579383403	-0.04084574063839001	0.06597693242435468	-0.05819021066467605	0.1935368834092947	0.1935368834092976	0.01111030992738351	-0.01414166381604078	0.03830061908152366	-0.02402097732200109	0.09804777335892893	-0.1011797575726226	-0.02791145494765363	-0.2187734806865511	0.1647393622979999	-0.003883630588365779	-0.04510825161810361	17.59130777263669	-4.51371489039326	3.947785569317519	5.265037846572276	-515.6046260896911	-88.9318277011641	-39.96114558244221	-4.514654362548836	-1.906237771416815	-0.9702344495423939	12.3817354552277	-1.986833440029829	3.176261869395492	-2.566536960223003	9.613196480426401	9.613196480426149	0.6227740097374775	-0.7922350710634057	1.934304614906329	-1.129792813464572	-1.019175927236868e-07	1.801398683302936e-07	2.67442660996458e-07	7.958439540498232e-08	-4.558384250946976e-07	-1.166498286066796e-07	-1.823760225868787e-08
0.03	-0.04157300633337166	0.0680509662643965	0.8955164311130248	0.2011177146618267	-0.3229135309844897	-0.4821550468112667	-0.13921344062715	0.07450808801664743	0.07450808801665053	-0.1742825560384824	-0.1184117297444582	-0.06614829354757212	0.003295330397384669	-0.1326245003777054	-0.05758307039377194	-0.02881097192900385	0.3675974053687601	-0.06024414839522538	0.09769614213457295	-0.08470843826039383	0.286448198220483	0.2864481982204792	0.01668074523936612	-0.02085793382136235	0.05674923615757996	-0.03530410663954598	0.09383477313019138	-0.09757126894471041	-0.02729392426304373	-0.2153357015173504	0.1616813382019026	-0.00408684826564526	-0.041525010520273	16.64355474451732	-4.332117383084748	4.001765581869023	5.221845013627448	-515.4881128979192	-87.83914205818623	-40.00896581159925	-4.155568517927629	-1.826965974484337	-0.9332409059993875	11.60913284543042	-1.898676056259376	3.149738976771741	-2.657355694812214	9.0633685260986	9.063368526097769	0.5220618022442289	-0.6027583075865127	1.790627090746187	-1.113776241754083	-1.309908795987254e-07	1.990553308242901e-07	3.207755163083033e-07	1.075478998529796e-07	-6.266448639242236e-07	-1.493806183539314e-07	-2.225714507839717e-08
0.04	-0.04310879940365742	0.06738470835992436	0.8951812312313855	0.2053754218836362	-0.3236100213065899	-0.4810228257606791	-0.1401869311536588	0.07782600495257726	0.07782600495257742	-0.1740882471580451	-0.1186524619089716	-0.0654901436566851	0.002888171192201899	-0.1743232577684561	-0.07555652955414917	-0.0382188151919297	0.4833641911384308	-0.07893582066202019	0.1286148900422616	-0.1097422672787504	0.3766902948170138	0.3766902948170051	0.02216652096397091	-0.02723161751948377	0.07481732670527262	-0.04603536599127667	0.08962177290145462	-0.09396278031680128	-0.02667639357848271	-0.2118979223481388	0.1586233141058069	-0.004290065942926655	-0.03794176942244232	15.7529595261581	-4.160556947380014	4.057379706028821	5.044878418951043	-514.5320182340622	-86.59456568550236	-40.07356481537271	-4.261723017605753	-1.77173219359856	-0.9587438234126214	11.68576312307787	-1.845486342021718	3.016169508889566	-2.269657244750756	9.07935283749492	9.079352837494985	0.6058420922619084	-0.7237178096233796	1.858199309233583	-1.019418820301746	-1.599113546038178e-07	2.176148671499489e-07	3.737544503032607e-07	1.353816113694041e-07	-7.964563921550622e-07	-1.820042375476936e-07	-2.626110273940466e-08
0.05	-0.04505596374254586	0.06654193376962284	0.8947519424439986	0.2107749730901269	-0.3244898900847976	-0.4795856672426833	-0.1414026726407848	0.0820339631012007	0.08203396310119909	-0.1738393151593231	-0.1189558227838379	-0.06465304036063484	0.002376549386534812	-0.2148902510097551	-0.09289690987576528	-0.04764793338469264	0.5959809319688166	-0.09691546218407707	0.1586847975265583	-0.1331729689727667	0.4644598849577969	0.4644598849578012	0.02759285001767339	-0.03338487320947202	0.09252290473405601	-0.05620241959047434	0.08463319691622646	-0.09066914171746883	-0.02589034701460485	-0.2079031493920995	0.1540055644543493	-0.003575786511710843	-0.03388427581509573	14.38939817599583	-4.295660396319724	4.151612685232026	5.268327388543426	-513.5860443440608	-86.02439662698474	-40.15305419011496	-3.921295044077619	-1.699941855686474	-0.9365051455876205	10.96483752876376	-1.75588860866207	2.982548642088153	-2.344817455635026	8.559549894474165	8.559549894476056	0.5070518173971699	-0.5527290304550089	1.714669598492315	-1.002438243303086	-1.772535952149656e-07	2.225315727026881e-07	4.089260223767006e-07	1.522410927740581e-07	-8.993356667299493e-07	-2.033163065094148e-07	-2.915016973559825e-08
0.06	-0.04740221952718526	0.06552880519525646	0.8942280606090083	0.2172837332980723	-0.3255458923884988	-0.4778517801950677	-0.1428457293096323	0.08710637470965261	0.08710637470965374	-0.173536915168972	-0.1193190361319594	-0.06364129477453843	0.001765839122160885	-0.2541415469184785	-0.1096273263671238	-0.05713742471261852	0.705205991428994	-0.11416252576071	0.1879605959663923	-0.1552053036230984	0.5495809867827467	0.5495809867827626	0.0328601192902855	-0.03920211217019868	0.1097457847145032	-0.06585305773264462	0.07964462093103107	-0.08737550311813802	-0.02510430045070958	-0.2039083764360463	0.1493878148028974	-0.002861507080493951	-0.02982678220772639	13.0768490471013	-4.438779586384616	4.246077603203274	5.371107122991789	-511.8886922490277	-85.31535659328678	-40.24534331915922	-3.998583551090635	-1.649739427547054	-0.9708184504452126	11.00742684903616	-1.698970752936926	2.85734769999704	-1.989983836013826	8.549655174328269	8.549655174328024	0.5740301360438355	-0.6565144637710639	1.761659699566333	-0.916135728896278	-1.941083312200525e-07	2.268738432755149e-07	4.43347810790287e-07	1.686385013319006e-07	-9.993967411509015e-07	-2.241520996718922e-07	-3.199229396695758e-08
0.07000000000000001	-0.0501352707795067	0.06435143466627583	0.8936087334997571	0.2248693652725343	-0.3267706974420279	-0.4758293645479563	-0.1445012756680771	0.09301780008942828	0.09301780008943096	-0.1731823494607823	-0.1197393670423272	-0.0624593171955686	0.001061430688027856	-0.2922480279954675	-0.1257395385401402	-0.06675042297257265	0.8113535545548841	-0.1306683290931178	0.2163901449368116	-0.1756758651465787	0.6322589411049906	0.6322589411049703	0.0380234055612387	-0.04480622872687038	0.1265705751392566	-0.07493401285967526	0.0744116048753324	-0.08443214844548173	-0.02432401734923607	-0.200507660596751	0.1451860907055078	-0.001812224667648019	-0.0256287972268889	11.89736698506356	-4.731995324016515	4.343118224467617	5.397717502645989	-510.3683143992454	-84.88818011999429	-40.34806719827584	-3.683589578693043	-1.57584205243044	-0.9601054812235857	10.333367010783	-1.606923319394854	2.815839340245384	-2.041376872580311	8.060099783944997	8.060099783939686	0.4831219176160985	-0.503625032027862	1.631010674310922	-0.8899678838950742	-2.015374497518869e-07	2.150747527305476e-07	4.594469190771564e-07	1.761304568507033e-07	-1.045550872333217e-06	-2.357758453826493e-07	-3.402552845381604e-08
0.08	-0.05324276868113715	0.06301616602751471	0.8928925634144158	0.2334994620715387	-0.3281566681680815	-0.4735266372422042	-0.1463546845541698	0.09974265185698301	0.09974265185698447	-0.1727770220808822	-0.1202139920743407	-0.06111146732027504	0.0002690342067667928	-0.3290308767800538	-0.1412069483232224	-0.07650601993064021	0.9140989563374775	-0.1463956602656111	0.2440229276944713	-0.1947778091526633	0.7122662643381363	0.7122662643380792	0.04301245363199287	-0.05006093650004788	0.1429202439792533	-0.08345066715825079	0.06917858881964058	-0.08148879377282724	-0.02354373424778099	-0.1971069447574517	0.140984366608118	-0.0007629422548038684	-0.02143081224604468	10.76239874216943	-5.031784754521022	4.439813233181491	5.318515281685237	-508.1885727434893	-84.33789720224166	-40.45870864580678	-3.733857092610121	-1.520778949560225	-0.9993381900678965	10.32699458037682	-1.543276320954008	2.697994457445127	-1.71626033253469	8.015528956508637	8.015528956508255	0.539182496004031	-0.586632707072226	1.666635382615011	-0.8032755632052623	-2.083584639306082e-07	2.022342840489486e-07	4.743639189687537e-07	1.830478670121486e-07	-1.088227136209814e-06	-2.468052654513599e-07	-3.600657650554541e-08
